<?xml version="1.0" encoding="UTF-8"?>
<svg xmlns="http://www.w3.org/2000/svg" xmlns:xlink="http://www.w3.org/1999/xlink" width="3525.1" height="3219" viewBox="0 0 3525.1 3219">
<defs>
<clipPath id="clip-0">
<path clip-rule="nonzero" d="M 2503.800781 2352.199219 L 2619.300781 2352.199219 L 2619.300781 2076.601562 C 2619.300781 2043.199219 2646.398438 2016.101562 2679.800781 2016.101562 L 2955.398438 2016.101562 L 2955.398438 1900.601562 L 2679.800781 1900.601562 C 2646.398438 1900.601562 2619.300781 1873.5 2619.300781 1840.101562 L 2619.300781 1564.5 L 2503.898438 1564.5 L 2503.898438 1840.101562 C 2503.898438 1873.5 2476.800781 1900.601562 2443.398438 1900.601562 L 2167.800781 1900.601562 L 2167.800781 2016.101562 L 2443.398438 2016.101562 C 2476.800781 2016.101562 2503.898438 2043.199219 2503.898438 2076.601562 Z M 2679.898438 2473.300781 L 2443.398438 2473.300781 C 2410 2473.300781 2382.898438 2446.199219 2382.898438 2412.800781 L 2382.898438 2137.199219 L 2107.300781 2137.199219 C 2073.898438 2137.199219 2046.800781 2110.101562 2046.800781 2076.699219 L 2046.800781 1840.199219 C 2046.800781 1806.800781 2073.898438 1779.699219 2107.300781 1779.699219 L 2382.898438 1779.699219 L 2382.898438 1504 C 2382.898438 1470.601562 2410 1443.5 2443.398438 1443.5 L 2679.898438 1443.5 C 2713.300781 1443.5 2740.398438 1470.601562 2740.398438 1504 L 2740.398438 1779.601562 L 3016 1779.601562 C 3049.398438 1779.601562 3076.5 1806.699219 3076.5 1840.101562 L 3076.5 2076.601562 C 3076.5 2110 3049.398438 2137.101562 3016 2137.101562 L 2740.398438 2137.101562 L 2740.398438 2412.699219 C 2740.398438 2446.199219 2713.300781 2473.300781 2679.898438 2473.300781 Z M 3129.199219 1637.101562 C 3095.800781 1637.101562 3068.699219 1609.898438 3068.699219 1576.601562 C 3068.699219 1560.601562 3075.101562 1545.199219 3086.398438 1533.898438 L 3207.398438 1412.898438 L 3107.199219 1312.699219 L 2986.199219 1433.699219 C 2962 1456.699219 2923.601562 1455.699219 2900.601562 1431.5 C 2878.398438 1408.101562 2878.398438 1371.5 2900.601562 1348.101562 L 3064.398438 1184.398438 C 3088 1160.800781 3126.398438 1160.800781 3150 1184.398438 L 3336 1370 C 3359.699219 1393.601562 3359.699219 1432 3336.101562 1455.601562 C 3336.101562 1455.601562 3336.101562 1455.601562 3336 1455.699219 L 3172.199219 1619.5 C 3160.800781 1630.800781 3145.300781 1637.199219 3129.199219 1637.101562 Z M 3464.601562 2150.300781 L 3233 2150.300781 C 3199.601562 2150.300781 3172.5 2123.199219 3172.5 2089.800781 C 3172.5 2056.398438 3199.601562 2029.300781 3233 2029.300781 L 3404.101562 2029.300781 L 3404.101562 1887.601562 L 3233 1887.601562 C 3199.601562 1887.601562 3172.5 1860.5 3172.5 1827.101562 C 3172.5 1793.699219 3199.601562 1766.601562 3233 1766.601562 L 3464.601562 1766.601562 C 3498 1766.601562 3525.101562 1793.699219 3525.101562 1827.101562 L 3525.101562 2089.800781 C 3525.101562 2123.199219 3498 2150.300781 3464.601562 2150.300781 Z M 3107.199219 2750.300781 C 3091.199219 2750.300781 3075.699219 2743.898438 3064.398438 2732.601562 L 2900.601562 2568.800781 C 2876.898438 2545.199219 2876.898438 2506.800781 2900.5 2483.199219 C 2924.101562 2459.5 2962.5 2459.5 2986.101562 2483.101562 L 3107.101562 2604.101562 L 3207.300781 2504 L 3086.300781 2383 C 3064.300781 2357.800781 3066.898438 2319.601562 3092 2297.601562 C 3114.898438 2277.601562 3149.101562 2277.699219 3171.898438 2297.800781 L 3335.898438 2461.199219 C 3359.601562 2484.800781 3359.601562 2523.199219 3336 2546.800781 C 3336 2546.800781 3336 2546.800781 3335.898438 2546.898438 L 3150.101562 2732.601562 C 3138.800781 2743.898438 3123.398438 2750.398438 3107.199219 2750.300781 Z M 2693 2921.800781 L 2430.199219 2921.800781 C 2396.800781 2921.800781 2369.699219 2894.699219 2369.699219 2861.300781 L 2369.699219 2629.800781 C 2369.699219 2596.398438 2396.800781 2569.300781 2430.199219 2569.300781 C 2463.601562 2569.300781 2490.699219 2596.398438 2490.699219 2629.800781 L 2490.699219 2800.800781 L 2632.5 2800.800781 L 2632.5 2629.800781 C 2632.5 2596.398438 2659.601562 2569.300781 2693 2569.300781 C 2726.398438 2569.300781 2753.5 2596.398438 2753.5 2629.800781 L 2753.5 2861.300781 C 2753.5 2894.800781 2726.5 2921.800781 2693 2921.800781 Z M 2016 2750.300781 C 2000 2750.300781 1984.5 2743.898438 1973.199219 2732.601562 L 1787.5 2546.898438 C 1763.800781 2523.300781 1763.800781 2484.898438 1787.398438 2461.300781 C 1787.398438 2461.300781 1787.398438 2461.300781 1787.5 2461.199219 L 1951.199219 2297.800781 C 1975.398438 2274.800781 2013.800781 2275.800781 2036.800781 2300 C 2059 2323.398438 2059 2360 2036.800781 2383.398438 L 1915.800781 2504.398438 L 2016.101562 2604.199219 L 2137.101562 2483.199219 C 2160.699219 2459.5 2199.101562 2459.5 2222.699219 2483.101562 C 2246.398438 2506.699219 2246.398438 2545.101562 2222.800781 2568.699219 L 2059.101562 2732.5 C 2047.601562 2743.898438 2032.101562 2750.300781 2016 2750.300781 Z M 1890.199219 2150.300781 L 1658.601562 2150.300781 C 1625.199219 2150.300781 1598.101562 2123.199219 1598.101562 2089.800781 L 1598.101562 1827 C 1598.101562 1793.601562 1625.199219 1766.5 1658.601562 1766.5 L 1890.199219 1766.5 C 1923.601562 1766.5 1950.699219 1793.601562 1950.699219 1827 C 1950.699219 1860.398438 1923.601562 1887.5 1890.199219 1887.5 L 1719.101562 1887.5 L 1719.101562 2029.199219 L 1890.199219 2029.199219 C 1923.601562 2029.199219 1950.699219 2056.300781 1950.699219 2089.699219 C 1950.699219 2123.101562 1923.601562 2150.300781 1890.199219 2150.300781 Z M 1994 1637 C 1978 1637 1962.5 1630.601562 1951.199219 1619.300781 L 1787.5 1455.601562 C 1763.800781 1432 1763.800781 1393.601562 1787.398438 1370 C 1787.398438 1370 1787.398438 1370 1787.5 1369.898438 L 1973.199219 1184.199219 C 1984.5 1172.898438 2000 1166.398438 2016 1166.398438 C 2032 1166.398438 2047.5 1172.800781 2058.800781 1184.199219 L 2222.5 1347.898438 C 2246.101562 1371.601562 2246.101562 1409.898438 2222.398438 1433.5 C 2198.699219 1457.199219 2160.398438 1457.101562 2136.800781 1433.398438 L 2015.800781 1312.398438 L 1915.898438 1412.699219 L 2036.898438 1533.699219 C 2060.601562 1557.300781 2060.601562 1595.699219 2037 1619.300781 C 2025.699219 1630.601562 2010.300781 1637.101562 1994.199219 1637.101562 Z M 2693 1347.5 C 2659.601562 1347.5 2632.5 1320.398438 2632.5 1287 L 2632.5 1116 L 2490.699219 1116 L 2490.699219 1287 C 2490.699219 1320.398438 2463.601562 1347.5 2430.199219 1347.5 C 2396.800781 1347.5 2369.699219 1320.398438 2369.699219 1287 L 2369.699219 1055.5 C 2369.699219 1022.101562 2396.800781 995 2430.199219 995 L 2693 995 C 2726.398438 995 2753.5 1022.101562 2753.5 1055.5 L 2753.5 1287 C 2753.5 1320.5 2726.5 1347.5 2693 1347.5 Z M 2179.800781 1451.300781 C 2146.398438 1451.398438 2119.199219 1424.398438 2119.101562 1390.898438 C 2119 1370.699219 2129.101562 1351.800781 2145.898438 1340.5 C 2228.300781 1284.800781 2321.101562 1246.398438 2418.699219 1227.601562 C 2451.699219 1222.199219 2482.800781 1244.601562 2488.101562 1277.601562 C 2493.199219 1309.300781 2472.699219 1339.5 2441.398438 1346.398438 C 2359.699219 1362.101562 2282.101562 1394.300781 2213.199219 1440.898438 C 2203.300781 1447.601562 2191.699219 1451.199219 2179.800781 1451.300781 Z M 1994 2400.800781 C 1973.898438 2400.800781 1955 2390.800781 1943.800781 2374.101562 C 1888.101562 2291.699219 1849.5 2198.800781 1830.699219 2101.199219 C 1823 2068.699219 1843 2036.101562 1875.601562 2028.398438 C 1908.101562 2020.699219 1940.699219 2040.699219 1948.398438 2073.300781 C 1948.898438 2075 1949.199219 2076.898438 1949.398438 2078.601562 C 1965.199219 2160.199219 1997.398438 2237.800781 2044 2306.699219 C 2062.699219 2334.398438 2055.398438 2372 2027.699219 2390.699219 C 2017.699219 2397.398438 2005.898438 2401.101562 1993.800781 2401.101562 Z M 2693 2690.300781 C 2659.601562 2691 2632 2664.5 2631.199219 2631.101562 C 2630.601562 2601.199219 2651.898438 2575.398438 2681.398438 2570.199219 C 2763.101562 2554.5 2840.699219 2522.300781 2909.601562 2475.699219 C 2937 2456.601562 2974.699219 2463.199219 2993.898438 2490.601562 C 3013.101562 2518 3006.398438 2555.699219 2979 2574.898438 C 2978.5 2575.300781 2977.898438 2575.699219 2977.300781 2576 C 2894.898438 2631.699219 2802.101562 2670.199219 2704.5 2689 C 2700.699219 2689.800781 2696.898438 2690.199219 2693 2690.300781 Z M 3232.898438 1887.601562 C 3203.898438 1887.601562 3179 1867 3173.5 1838.601562 C 3157.699219 1756.898438 3125.5 1679.300781 3078.800781 1610.5 C 3061 1582.199219 3069.5 1544.800781 3097.800781 1527.101562 C 3124.800781 1510.101562 3160.398438 1517 3179.101562 1542.898438 C 3234.800781 1625.300781 3273.300781 1718 3292.101562 1815.699219 C 3298.5 1848.5 3277 1880.199219 3244.199219 1886.601562 C 3240.5 1887.199219 3236.699219 1887.601562 3232.898438 1887.601562 Z M 3129.101562 2400.800781 C 3095.699219 2400.898438 3068.5 2373.898438 3068.398438 2340.398438 C 3068.398438 2328.300781 3072 2316.398438 3078.800781 2306.398438 C 3125.5 2237.601562 3157.699219 2160.101562 3173.5 2078.5 C 3178.898438 2045.5 3210 2023.101562 3242.898438 2028.5 C 3275.898438 2033.898438 3298.300781 2065 3292.898438 2097.898438 C 3292.699219 2099 3292.5 2100.101562 3292.300781 2101.199219 C 3273.5 2198.898438 3235 2291.699219 3179.300781 2374 C 3168.101562 2390.699219 3149.199219 2400.800781 3129.101562 2400.800781 Z M 2430.300781 2690.300781 C 2426.398438 2690.300781 2422.5 2689.898438 2418.699219 2689.199219 C 2321 2670.398438 2228.199219 2631.898438 2145.898438 2576.199219 C 2117.601562 2558.398438 2109.101562 2521.101562 2126.898438 2492.800781 C 2144.699219 2464.5 2182 2456 2210.300781 2473.800781 C 2211.398438 2474.5 2212.398438 2475.199219 2213.398438 2475.898438 C 2282.300781 2522.398438 2359.898438 2554.5 2441.601562 2570.199219 C 2474.398438 2576.398438 2496 2608.101562 2489.800781 2640.898438 C 2484.398438 2669.5 2459.300781 2690.199219 2430.199219 2690.101562 Z M 1890.300781 1887.601562 C 1856.898438 1887.601562 1829.800781 1860.5 1829.699219 1827.199219 C 1829.699219 1823.300781 1830.101562 1819.5 1830.800781 1815.601562 C 1849.699219 1717.898438 1888.300781 1625.101562 1944.101562 1542.800781 C 1962.800781 1515.101562 2000.398438 1507.800781 2028.101562 1526.398438 C 2055.800781 1545.101562 2063.101562 1582.699219 2044.5 1610.398438 C 1997.898438 1679.300781 1965.800781 1756.898438 1949.898438 1838.601562 C 1944.398438 1867.101562 1919.398438 1887.699219 1890.300781 1887.601562 Z M 2943.398438 1451.300781 C 2931.398438 1451.300781 2919.601562 1447.699219 2909.601562 1440.898438 C 2840.699219 1394.300781 2763.101562 1362.199219 2681.398438 1346.398438 C 2648.601562 1340 2627.199219 1308.300781 2633.5 1275.398438 C 2639.898438 1242.601562 2671.601562 1221.199219 2704.5 1227.5 C 2802.199219 1246.300781 2895 1284.800781 2977.300781 1340.398438 C 3005.101562 1359 3012.398438 1396.601562 2993.800781 1424.398438 C 2982.5 1441.300781 2963.601562 1451.398438 2943.398438 1451.300781 Z M 2289.5 644 L 953.199219 644 C 919.800781 644 892.699219 616.898438 892.699219 583.5 C 892.699219 550.101562 919.800781 523 953.199219 523 L 2289.5 523 C 2322.898438 523 2350 550.101562 2350 583.5 C 2350 616.898438 2323 644 2289.5 644 Z M 1601.101562 2696 L 402.300781 2696 C 368.898438 2696 341.800781 2668.898438 341.800781 2635.5 C 341.800781 2602.101562 368.898438 2575 402.300781 2575 L 1601.101562 2575 C 1634.5 2575 1661.601562 2602.101562 1661.601562 2635.5 C 1661.601562 2668.898438 1634.5 2696 1601.101562 2696 Z M 1532.300781 2354.101562 L 402.300781 2354.101562 C 368.898438 2354.101562 341.800781 2327 341.800781 2293.601562 C 341.800781 2260.199219 368.898438 2233.101562 402.300781 2233.101562 L 1532.300781 2233.101562 C 1565.699219 2233.101562 1592.800781 2260.199219 1592.800781 2293.601562 C 1592.800781 2327 1565.699219 2354.101562 1532.300781 2354.101562 Z M 1463.300781 2012 L 402.300781 2012 C 368.898438 2012 341.800781 1984.898438 341.800781 1951.5 C 341.800781 1918.101562 368.898438 1891 402.300781 1891 L 1463.398438 1891 C 1496.800781 1891 1523.898438 1918.101562 1523.898438 1951.5 C 1523.898438 1984.898438 1496.800781 2012 1463.300781 2012 Z M 1669.898438 1670 L 402.300781 1670 C 368.898438 1670 341.800781 1642.898438 341.800781 1609.5 C 341.800781 1576.101562 368.898438 1549 402.300781 1549 L 1669.898438 1549 C 1703.300781 1549 1730.398438 1576.101562 1730.398438 1609.5 C 1730.398438 1642.898438 1703.398438 1670 1669.898438 1670 Z M 1669.898438 1328 L 402.300781 1328 C 368.898438 1328 341.800781 1300.898438 341.800781 1267.5 C 341.800781 1234.101562 368.898438 1207 402.300781 1207 L 1669.898438 1207 C 1703.300781 1207 1730.398438 1234.101562 1730.398438 1267.5 C 1730.398438 1300.898438 1703.398438 1328 1669.898438 1328 Z M 2289.5 986 L 402.300781 986 C 368.898438 986 341.800781 958.898438 341.800781 925.5 C 341.800781 892.101562 368.898438 865 402.300781 865 L 2289.5 865 C 2322.898438 865 2350 892.101562 2350 925.5 C 2350 958.898438 2323 986 2289.5 986 Z M 206.699219 595.199219 L 595.199219 595.199219 L 595.199219 206.699219 Z M 655.699219 716.199219 L 60.601562 716.199219 C 27.199219 716.199219 0.101562 689.101562 0 655.800781 C 0 639.699219 6.398438 624.300781 17.800781 612.898438 L 612.800781 17.800781 C 636.5 -5.800781 674.800781 -5.699219 698.398438 17.898438 C 709.699219 29.199219 716.101562 44.601562 716.101562 60.601562 L 716.101562 655.699219 C 716.101562 689.101562 689 716.101562 655.699219 716.199219 Z M 2561.5 3219 L 60.601562 3219 C 27.199219 3219 0.101562 3191.898438 0.101562 3158.5 L 0.101562 655.800781 C 0.101562 622.398438 27.199219 595.300781 60.601562 595.300781 C 94 595.300781 121.101562 622.398438 121.101562 655.800781 L 121.101562 3098 L 2501 3098 L 2501 2861.398438 C 2501 2828 2528.101562 2800.898438 2561.5 2800.898438 C 2594.898438 2800.898438 2622 2828 2622 2861.398438 L 2622 3158.5 C 2622.101562 3191.898438 2595 3219 2561.5 3219 Z M 2561.5 1116 C 2528.101562 1116 2501 1088.898438 2501 1055.5 L 2501 121 L 655.699219 121 C 622.300781 121 595.199219 93.898438 595.199219 60.5 C 595.199219 27.101562 622.300781 0 655.699219 0 L 2561.898438 0 C 2595.300781 0 2622.398438 27.101562 2622.398438 60.5 L 2622.398438 1055.398438 C 2622.398438 1088.800781 2595.300781 1115.898438 2561.898438 1115.898438 C 2561.800781 1116 2561.699219 1116 2561.5 1116 Z M 2561.5 1116 "/>
</clipPath>
<clipPath id="clip-1">
<path clip-rule="nonzero" d="M 2503.800781 2352.199219 L 2619.300781 2352.199219 L 2619.300781 2076.601562 C 2619.300781 2043.199219 2646.398438 2016.101562 2679.800781 2016.101562 L 2955.398438 2016.101562 L 2955.398438 1900.601562 L 2679.800781 1900.601562 C 2646.398438 1900.601562 2619.300781 1873.5 2619.300781 1840.101562 L 2619.300781 1564.5 L 2503.898438 1564.5 L 2503.898438 1840.101562 C 2503.898438 1873.5 2476.800781 1900.601562 2443.398438 1900.601562 L 2167.800781 1900.601562 L 2167.800781 2016.101562 L 2443.398438 2016.101562 C 2476.800781 2016.101562 2503.898438 2043.199219 2503.898438 2076.601562 Z M 2679.898438 2473.300781 L 2443.398438 2473.300781 C 2410 2473.300781 2382.898438 2446.199219 2382.898438 2412.800781 L 2382.898438 2137.199219 L 2107.300781 2137.199219 C 2073.898438 2137.199219 2046.800781 2110.101562 2046.800781 2076.699219 L 2046.800781 1840.199219 C 2046.800781 1806.800781 2073.898438 1779.699219 2107.300781 1779.699219 L 2382.898438 1779.699219 L 2382.898438 1504 C 2382.898438 1470.601562 2410 1443.5 2443.398438 1443.5 L 2679.898438 1443.5 C 2713.300781 1443.5 2740.398438 1470.601562 2740.398438 1504 L 2740.398438 1779.601562 L 3016 1779.601562 C 3049.398438 1779.601562 3076.5 1806.699219 3076.5 1840.101562 L 3076.5 2076.601562 C 3076.5 2110 3049.398438 2137.101562 3016 2137.101562 L 2740.398438 2137.101562 L 2740.398438 2412.699219 C 2740.398438 2446.199219 2713.300781 2473.300781 2679.898438 2473.300781 Z M 3129.199219 1637.101562 C 3095.800781 1637.101562 3068.699219 1609.898438 3068.699219 1576.601562 C 3068.699219 1560.601562 3075.101562 1545.199219 3086.398438 1533.898438 L 3207.398438 1412.898438 L 3107.199219 1312.699219 L 2986.199219 1433.699219 C 2962 1456.699219 2923.601562 1455.699219 2900.601562 1431.5 C 2878.398438 1408.101562 2878.398438 1371.5 2900.601562 1348.101562 L 3064.398438 1184.398438 C 3088 1160.800781 3126.398438 1160.800781 3150 1184.398438 L 3336 1370 C 3359.699219 1393.601562 3359.699219 1432 3336.101562 1455.601562 C 3336.101562 1455.601562 3336.101562 1455.601562 3336 1455.699219 L 3172.199219 1619.5 C 3160.800781 1630.800781 3145.300781 1637.199219 3129.199219 1637.101562 Z M 3464.601562 2150.300781 L 3233 2150.300781 C 3199.601562 2150.300781 3172.5 2123.199219 3172.5 2089.800781 C 3172.5 2056.398438 3199.601562 2029.300781 3233 2029.300781 L 3404.101562 2029.300781 L 3404.101562 1887.601562 L 3233 1887.601562 C 3199.601562 1887.601562 3172.5 1860.5 3172.5 1827.101562 C 3172.5 1793.699219 3199.601562 1766.601562 3233 1766.601562 L 3464.601562 1766.601562 C 3498 1766.601562 3525.101562 1793.699219 3525.101562 1827.101562 L 3525.101562 2089.800781 C 3525.101562 2123.199219 3498 2150.300781 3464.601562 2150.300781 Z M 3107.199219 2750.300781 C 3091.199219 2750.300781 3075.699219 2743.898438 3064.398438 2732.601562 L 2900.601562 2568.800781 C 2876.898438 2545.199219 2876.898438 2506.800781 2900.5 2483.199219 C 2924.101562 2459.5 2962.5 2459.5 2986.101562 2483.101562 L 3107.101562 2604.101562 L 3207.300781 2504 L 3086.300781 2383 C 3064.300781 2357.800781 3066.898438 2319.601562 3092 2297.601562 C 3114.898438 2277.601562 3149.101562 2277.699219 3171.898438 2297.800781 L 3335.898438 2461.199219 C 3359.601562 2484.800781 3359.601562 2523.199219 3336 2546.800781 C 3336 2546.800781 3336 2546.800781 3335.898438 2546.898438 L 3150.101562 2732.601562 C 3138.800781 2743.898438 3123.398438 2750.398438 3107.199219 2750.300781 Z M 2693 2921.800781 L 2430.199219 2921.800781 C 2396.800781 2921.800781 2369.699219 2894.699219 2369.699219 2861.300781 L 2369.699219 2629.800781 C 2369.699219 2596.398438 2396.800781 2569.300781 2430.199219 2569.300781 C 2463.601562 2569.300781 2490.699219 2596.398438 2490.699219 2629.800781 L 2490.699219 2800.800781 L 2632.5 2800.800781 L 2632.5 2629.800781 C 2632.5 2596.398438 2659.601562 2569.300781 2693 2569.300781 C 2726.398438 2569.300781 2753.5 2596.398438 2753.5 2629.800781 L 2753.5 2861.300781 C 2753.5 2894.800781 2726.5 2921.800781 2693 2921.800781 Z M 2016 2750.300781 C 2000 2750.300781 1984.5 2743.898438 1973.199219 2732.601562 L 1787.5 2546.898438 C 1763.800781 2523.300781 1763.800781 2484.898438 1787.398438 2461.300781 C 1787.398438 2461.300781 1787.398438 2461.300781 1787.5 2461.199219 L 1951.199219 2297.800781 C 1975.398438 2274.800781 2013.800781 2275.800781 2036.800781 2300 C 2059 2323.398438 2059 2360 2036.800781 2383.398438 L 1915.800781 2504.398438 L 2016.101562 2604.199219 L 2137.101562 2483.199219 C 2160.699219 2459.5 2199.101562 2459.5 2222.699219 2483.101562 C 2246.398438 2506.699219 2246.398438 2545.101562 2222.800781 2568.699219 L 2059.101562 2732.5 C 2047.601562 2743.898438 2032.101562 2750.300781 2016 2750.300781 Z M 1890.199219 2150.300781 L 1658.601562 2150.300781 C 1625.199219 2150.300781 1598.101562 2123.199219 1598.101562 2089.800781 L 1598.101562 1827 C 1598.101562 1793.601562 1625.199219 1766.5 1658.601562 1766.5 L 1890.199219 1766.5 C 1923.601562 1766.5 1950.699219 1793.601562 1950.699219 1827 C 1950.699219 1860.398438 1923.601562 1887.5 1890.199219 1887.5 L 1719.101562 1887.5 L 1719.101562 2029.199219 L 1890.199219 2029.199219 C 1923.601562 2029.199219 1950.699219 2056.300781 1950.699219 2089.699219 C 1950.699219 2123.101562 1923.601562 2150.300781 1890.199219 2150.300781 Z M 1994 1637 C 1978 1637 1962.5 1630.601562 1951.199219 1619.300781 L 1787.5 1455.601562 C 1763.800781 1432 1763.800781 1393.601562 1787.398438 1370 C 1787.398438 1370 1787.398438 1370 1787.5 1369.898438 L 1973.199219 1184.199219 C 1984.5 1172.898438 2000 1166.398438 2016 1166.398438 C 2032 1166.398438 2047.5 1172.800781 2058.800781 1184.199219 L 2222.5 1347.898438 C 2246.101562 1371.601562 2246.101562 1409.898438 2222.398438 1433.5 C 2198.699219 1457.199219 2160.398438 1457.101562 2136.800781 1433.398438 L 2015.800781 1312.398438 L 1915.898438 1412.699219 L 2036.898438 1533.699219 C 2060.601562 1557.300781 2060.601562 1595.699219 2037 1619.300781 C 2025.699219 1630.601562 2010.300781 1637.101562 1994.199219 1637.101562 Z M 2693 1347.5 C 2659.601562 1347.5 2632.5 1320.398438 2632.5 1287 L 2632.5 1116 L 2490.699219 1116 L 2490.699219 1287 C 2490.699219 1320.398438 2463.601562 1347.5 2430.199219 1347.5 C 2396.800781 1347.5 2369.699219 1320.398438 2369.699219 1287 L 2369.699219 1055.5 C 2369.699219 1022.101562 2396.800781 995 2430.199219 995 L 2693 995 C 2726.398438 995 2753.5 1022.101562 2753.5 1055.5 L 2753.5 1287 C 2753.5 1320.5 2726.5 1347.5 2693 1347.5 Z M 2179.800781 1451.300781 C 2146.398438 1451.398438 2119.199219 1424.398438 2119.101562 1390.898438 C 2119 1370.699219 2129.101562 1351.800781 2145.898438 1340.5 C 2228.300781 1284.800781 2321.101562 1246.398438 2418.699219 1227.601562 C 2451.699219 1222.199219 2482.800781 1244.601562 2488.101562 1277.601562 C 2493.199219 1309.300781 2472.699219 1339.5 2441.398438 1346.398438 C 2359.699219 1362.101562 2282.101562 1394.300781 2213.199219 1440.898438 C 2203.300781 1447.601562 2191.699219 1451.199219 2179.800781 1451.300781 Z M 1994 2400.800781 C 1973.898438 2400.800781 1955 2390.800781 1943.800781 2374.101562 C 1888.101562 2291.699219 1849.5 2198.800781 1830.699219 2101.199219 C 1823 2068.699219 1843 2036.101562 1875.601562 2028.398438 C 1908.101562 2020.699219 1940.699219 2040.699219 1948.398438 2073.300781 C 1948.898438 2075 1949.199219 2076.898438 1949.398438 2078.601562 C 1965.199219 2160.199219 1997.398438 2237.800781 2044 2306.699219 C 2062.699219 2334.398438 2055.398438 2372 2027.699219 2390.699219 C 2017.699219 2397.398438 2005.898438 2401.101562 1993.800781 2401.101562 Z M 2693 2690.300781 C 2659.601562 2691 2632 2664.5 2631.199219 2631.101562 C 2630.601562 2601.199219 2651.898438 2575.398438 2681.398438 2570.199219 C 2763.101562 2554.5 2840.699219 2522.300781 2909.601562 2475.699219 C 2937 2456.601562 2974.699219 2463.199219 2993.898438 2490.601562 C 3013.101562 2518 3006.398438 2555.699219 2979 2574.898438 C 2978.5 2575.300781 2977.898438 2575.699219 2977.300781 2576 C 2894.898438 2631.699219 2802.101562 2670.199219 2704.5 2689 C 2700.699219 2689.800781 2696.898438 2690.199219 2693 2690.300781 Z M 3232.898438 1887.601562 C 3203.898438 1887.601562 3179 1867 3173.5 1838.601562 C 3157.699219 1756.898438 3125.5 1679.300781 3078.800781 1610.5 C 3061 1582.199219 3069.5 1544.800781 3097.800781 1527.101562 C 3124.800781 1510.101562 3160.398438 1517 3179.101562 1542.898438 C 3234.800781 1625.300781 3273.300781 1718 3292.101562 1815.699219 C 3298.5 1848.5 3277 1880.199219 3244.199219 1886.601562 C 3240.5 1887.199219 3236.699219 1887.601562 3232.898438 1887.601562 Z M 3129.101562 2400.800781 C 3095.699219 2400.898438 3068.5 2373.898438 3068.398438 2340.398438 C 3068.398438 2328.300781 3072 2316.398438 3078.800781 2306.398438 C 3125.5 2237.601562 3157.699219 2160.101562 3173.5 2078.5 C 3178.898438 2045.5 3210 2023.101562 3242.898438 2028.5 C 3275.898438 2033.898438 3298.300781 2065 3292.898438 2097.898438 C 3292.699219 2099 3292.5 2100.101562 3292.300781 2101.199219 C 3273.5 2198.898438 3235 2291.699219 3179.300781 2374 C 3168.101562 2390.699219 3149.199219 2400.800781 3129.101562 2400.800781 Z M 2430.300781 2690.300781 C 2426.398438 2690.300781 2422.5 2689.898438 2418.699219 2689.199219 C 2321 2670.398438 2228.199219 2631.898438 2145.898438 2576.199219 C 2117.601562 2558.398438 2109.101562 2521.101562 2126.898438 2492.800781 C 2144.699219 2464.5 2182 2456 2210.300781 2473.800781 C 2211.398438 2474.5 2212.398438 2475.199219 2213.398438 2475.898438 C 2282.300781 2522.398438 2359.898438 2554.5 2441.601562 2570.199219 C 2474.398438 2576.398438 2496 2608.101562 2489.800781 2640.898438 C 2484.398438 2669.5 2459.300781 2690.199219 2430.199219 2690.101562 Z M 1890.300781 1887.601562 C 1856.898438 1887.601562 1829.800781 1860.5 1829.699219 1827.199219 C 1829.699219 1823.300781 1830.101562 1819.5 1830.800781 1815.601562 C 1849.699219 1717.898438 1888.300781 1625.101562 1944.101562 1542.800781 C 1962.800781 1515.101562 2000.398438 1507.800781 2028.101562 1526.398438 C 2055.800781 1545.101562 2063.101562 1582.699219 2044.5 1610.398438 C 1997.898438 1679.300781 1965.800781 1756.898438 1949.898438 1838.601562 C 1944.398438 1867.101562 1919.398438 1887.699219 1890.300781 1887.601562 Z M 2943.398438 1451.300781 C 2931.398438 1451.300781 2919.601562 1447.699219 2909.601562 1440.898438 C 2840.699219 1394.300781 2763.101562 1362.199219 2681.398438 1346.398438 C 2648.601562 1340 2627.199219 1308.300781 2633.5 1275.398438 C 2639.898438 1242.601562 2671.601562 1221.199219 2704.5 1227.5 C 2802.199219 1246.300781 2895 1284.800781 2977.300781 1340.398438 C 3005.101562 1359 3012.398438 1396.601562 2993.800781 1424.398438 C 2982.5 1441.300781 2963.601562 1451.398438 2943.398438 1451.300781 Z M 2289.5 644 L 953.199219 644 C 919.800781 644 892.699219 616.898438 892.699219 583.5 C 892.699219 550.101562 919.800781 523 953.199219 523 L 2289.5 523 C 2322.898438 523 2350 550.101562 2350 583.5 C 2350 616.898438 2323 644 2289.5 644 Z M 1601.101562 2696 L 402.300781 2696 C 368.898438 2696 341.800781 2668.898438 341.800781 2635.5 C 341.800781 2602.101562 368.898438 2575 402.300781 2575 L 1601.101562 2575 C 1634.5 2575 1661.601562 2602.101562 1661.601562 2635.5 C 1661.601562 2668.898438 1634.5 2696 1601.101562 2696 Z M 1532.300781 2354.101562 L 402.300781 2354.101562 C 368.898438 2354.101562 341.800781 2327 341.800781 2293.601562 C 341.800781 2260.199219 368.898438 2233.101562 402.300781 2233.101562 L 1532.300781 2233.101562 C 1565.699219 2233.101562 1592.800781 2260.199219 1592.800781 2293.601562 C 1592.800781 2327 1565.699219 2354.101562 1532.300781 2354.101562 Z M 1463.300781 2012 L 402.300781 2012 C 368.898438 2012 341.800781 1984.898438 341.800781 1951.5 C 341.800781 1918.101562 368.898438 1891 402.300781 1891 L 1463.398438 1891 C 1496.800781 1891 1523.898438 1918.101562 1523.898438 1951.5 C 1523.898438 1984.898438 1496.800781 2012 1463.300781 2012 Z M 1669.898438 1670 L 402.300781 1670 C 368.898438 1670 341.800781 1642.898438 341.800781 1609.5 C 341.800781 1576.101562 368.898438 1549 402.300781 1549 L 1669.898438 1549 C 1703.300781 1549 1730.398438 1576.101562 1730.398438 1609.5 C 1730.398438 1642.898438 1703.398438 1670 1669.898438 1670 Z M 1669.898438 1328 L 402.300781 1328 C 368.898438 1328 341.800781 1300.898438 341.800781 1267.5 C 341.800781 1234.101562 368.898438 1207 402.300781 1207 L 1669.898438 1207 C 1703.300781 1207 1730.398438 1234.101562 1730.398438 1267.5 C 1730.398438 1300.898438 1703.398438 1328 1669.898438 1328 Z M 2289.5 986 L 402.300781 986 C 368.898438 986 341.800781 958.898438 341.800781 925.5 C 341.800781 892.101562 368.898438 865 402.300781 865 L 2289.5 865 C 2322.898438 865 2350 892.101562 2350 925.5 C 2350 958.898438 2323 986 2289.5 986 Z M 206.699219 595.199219 L 595.199219 595.199219 L 595.199219 206.699219 Z M 655.699219 716.199219 L 60.601562 716.199219 C 27.199219 716.199219 0.101562 689.101562 0 655.800781 C 0 639.699219 6.398438 624.300781 17.800781 612.898438 L 612.800781 17.800781 C 636.5 -5.800781 674.800781 -5.699219 698.398438 17.898438 C 709.699219 29.199219 716.101562 44.601562 716.101562 60.601562 L 716.101562 655.699219 C 716.101562 689.101562 689 716.101562 655.699219 716.199219 Z M 2561.5 3219 L 60.601562 3219 C 27.199219 3219 0.101562 3191.898438 0.101562 3158.5 L 0.101562 655.800781 C 0.101562 622.398438 27.199219 595.300781 60.601562 595.300781 C 94 595.300781 121.101562 622.398438 121.101562 655.800781 L 121.101562 3098 L 2501 3098 L 2501 2861.398438 C 2501 2828 2528.101562 2800.898438 2561.5 2800.898438 C 2594.898438 2800.898438 2622 2828 2622 2861.398438 L 2622 3158.5 C 2622.101562 3191.898438 2595 3219 2561.5 3219 Z M 2561.5 1116 C 2528.101562 1116 2501 1088.898438 2501 1055.5 L 2501 121 L 655.699219 121 C 622.300781 121 595.199219 93.898438 595.199219 60.5 C 595.199219 27.101562 622.300781 0 655.699219 0 L 2561.898438 0 C 2595.300781 0 2622.398438 27.101562 2622.398438 60.5 L 2622.398438 1055.398438 C 2622.398438 1088.800781 2595.300781 1115.898438 2561.898438 1115.898438 C 2561.800781 1116 2561.699219 1116 2561.5 1116 "/>
</clipPath>
<linearGradient id="linear-pattern-0" gradientUnits="userSpaceOnUse" x1="-0.120065" y1="0" x2="1.163987" y2="0" gradientTransform="matrix(2626.1, 2626.1, -2626.1, 2626.1, 166.175, 464.43)">
<stop offset="0" stop-color="rgb(34.365845%, 58.634949%, 84.017944%)" stop-opacity="1"/>
<stop offset="0.0625" stop-color="rgb(34.365845%, 58.634949%, 84.017944%)" stop-opacity="1"/>
<stop offset="0.09375" stop-color="rgb(34.364319%, 58.628845%, 84.014893%)" stop-opacity="1"/>
<stop offset="0.0976562" stop-color="rgb(34.27124%, 58.442688%, 83.911133%)" stop-opacity="1"/>
<stop offset="0.101562" stop-color="rgb(34.181213%, 58.261108%, 83.808899%)" stop-opacity="1"/>
<stop offset="0.105469" stop-color="rgb(33.988953%, 58.062744%, 83.703613%)" stop-opacity="1"/>
<stop offset="0.109375" stop-color="rgb(33.798218%, 57.86438%, 83.596802%)" stop-opacity="1"/>
<stop offset="0.113281" stop-color="rgb(33.482361%, 57.644653%, 83.486938%)" stop-opacity="1"/>
<stop offset="0.117188" stop-color="rgb(33.164978%, 57.424927%, 83.377075%)" stop-opacity="1"/>
<stop offset="0.121094" stop-color="rgb(33.045959%, 57.241821%, 83.274841%)" stop-opacity="1"/>
<stop offset="0.125" stop-color="rgb(32.926941%, 57.058716%, 83.172607%)" stop-opacity="1"/>
<stop offset="0.128906" stop-color="rgb(32.839966%, 56.881714%, 83.071899%)" stop-opacity="1"/>
<stop offset="0.132812" stop-color="rgb(32.752991%, 56.704712%, 82.969666%)" stop-opacity="1"/>
<stop offset="0.136719" stop-color="rgb(32.666016%, 56.52771%, 82.868958%)" stop-opacity="1"/>
<stop offset="0.140625" stop-color="rgb(32.577515%, 56.350708%, 82.76825%)" stop-opacity="1"/>
<stop offset="0.144531" stop-color="rgb(32.400513%, 56.216431%, 82.698059%)" stop-opacity="1"/>
<stop offset="0.148438" stop-color="rgb(32.225037%, 56.082153%, 82.627869%)" stop-opacity="1"/>
<stop offset="0.152344" stop-color="rgb(32.028198%, 55.949402%, 82.56073%)" stop-opacity="1"/>
<stop offset="0.15625" stop-color="rgb(31.83136%, 55.81665%, 82.493591%)" stop-opacity="1"/>
<stop offset="0.160156" stop-color="rgb(31.758118%, 55.563354%, 82.344055%)" stop-opacity="1"/>
<stop offset="0.164062" stop-color="rgb(31.686401%, 55.311584%, 82.194519%)" stop-opacity="1"/>
<stop offset="0.167969" stop-color="rgb(31.599426%, 55.143738%, 82.098389%)" stop-opacity="1"/>
<stop offset="0.171875" stop-color="rgb(31.512451%, 54.975891%, 82.002258%)" stop-opacity="1"/>
<stop offset="0.179687" stop-color="rgb(31.413269%, 54.879761%, 81.950378%)" stop-opacity="1"/>
<stop offset="0.183594" stop-color="rgb(31.240845%, 54.541016%, 81.75354%)" stop-opacity="1"/>
<stop offset="0.1875" stop-color="rgb(31.169128%, 54.298401%, 81.610107%)" stop-opacity="1"/>
<stop offset="0.191406" stop-color="rgb(31.086731%, 54.10614%, 81.497192%)" stop-opacity="1"/>
<stop offset="0.195312" stop-color="rgb(31.004333%, 53.915405%, 81.384277%)" stop-opacity="1"/>
<stop offset="0.203125" stop-color="rgb(30.906677%, 53.820801%, 81.332397%)" stop-opacity="1"/>
<stop offset="0.207031" stop-color="rgb(30.644226%, 53.497314%, 81.149292%)" stop-opacity="1"/>
<stop offset="0.210938" stop-color="rgb(30.477905%, 53.269958%, 81.018066%)" stop-opacity="1"/>
<stop offset="0.214844" stop-color="rgb(30.317688%, 53.025818%, 80.877686%)" stop-opacity="1"/>
<stop offset="0.21875" stop-color="rgb(30.155945%, 52.781677%, 80.737305%)" stop-opacity="1"/>
<stop offset="0.222656" stop-color="rgb(30.072021%, 52.613831%, 80.638123%)" stop-opacity="1"/>
<stop offset="0.226562" stop-color="rgb(29.988098%, 52.444458%, 80.53894%)" stop-opacity="1"/>
<stop offset="0.230469" stop-color="rgb(29.983521%, 52.238464%, 80.410767%)" stop-opacity="1"/>
<stop offset="0.234375" stop-color="rgb(29.980469%, 52.030945%, 80.284119%)" stop-opacity="1"/>
<stop offset="0.238281" stop-color="rgb(30.018616%, 51.805115%, 80.142212%)" stop-opacity="1"/>
<stop offset="0.242187" stop-color="rgb(30.055237%, 51.577759%, 80.000305%)" stop-opacity="1"/>
<stop offset="0.246094" stop-color="rgb(29.972839%, 51.411438%, 79.901123%)" stop-opacity="1"/>
<stop offset="0.25" stop-color="rgb(29.888916%, 51.243591%, 79.800415%)" stop-opacity="1"/>
<stop offset="0.253906" stop-color="rgb(29.866028%, 51.048279%, 79.681396%)" stop-opacity="1"/>
<stop offset="0.257812" stop-color="rgb(29.841614%, 50.852966%, 79.560852%)" stop-opacity="1"/>
<stop offset="0.261719" stop-color="rgb(29.884338%, 50.624084%, 79.418945%)" stop-opacity="1"/>
<stop offset="0.265625" stop-color="rgb(29.927063%, 50.395203%, 79.273987%)" stop-opacity="1"/>
<stop offset="0.269531" stop-color="rgb(29.957581%, 50.233459%, 79.173279%)" stop-opacity="1"/>
<stop offset="0.273437" stop-color="rgb(29.988098%, 50.071716%, 79.071045%)" stop-opacity="1"/>
<stop offset="0.277344" stop-color="rgb(30.053711%, 49.900818%, 78.962708%)" stop-opacity="1"/>
<stop offset="0.28125" stop-color="rgb(30.12085%, 49.728394%, 78.852844%)" stop-opacity="1"/>
<stop offset="0.285156" stop-color="rgb(30.273438%, 49.513245%, 78.712463%)" stop-opacity="1"/>
<stop offset="0.289062" stop-color="rgb(30.426025%, 49.29657%, 78.572083%)" stop-opacity="1"/>
<stop offset="0.292969" stop-color="rgb(30.580139%, 49.079895%, 78.431702%)" stop-opacity="1"/>
<stop offset="0.296875" stop-color="rgb(30.732727%, 48.861694%, 78.291321%)" stop-opacity="1"/>
<stop offset="0.300781" stop-color="rgb(30.885315%, 48.643494%, 78.15094%)" stop-opacity="1"/>
<stop offset="0.304687" stop-color="rgb(31.037903%, 48.425293%, 78.009033%)" stop-opacity="1"/>
<stop offset="0.308594" stop-color="rgb(31.190491%, 48.205566%, 77.868652%)" stop-opacity="1"/>
<stop offset="0.3125" stop-color="rgb(31.343079%, 47.98584%, 77.726746%)" stop-opacity="1"/>
<stop offset="0.316406" stop-color="rgb(31.494141%, 47.766113%, 77.586365%)" stop-opacity="1"/>
<stop offset="0.320312" stop-color="rgb(31.645203%, 47.544861%, 77.444458%)" stop-opacity="1"/>
<stop offset="0.324219" stop-color="rgb(31.797791%, 47.325134%, 77.304077%)" stop-opacity="1"/>
<stop offset="0.328125" stop-color="rgb(31.947327%, 47.102356%, 77.16217%)" stop-opacity="1"/>
<stop offset="0.332031" stop-color="rgb(32.098389%, 46.879578%, 77.020264%)" stop-opacity="1"/>
<stop offset="0.335938" stop-color="rgb(32.249451%, 46.656799%, 76.878357%)" stop-opacity="1"/>
<stop offset="0.339844" stop-color="rgb(32.403564%, 46.405029%, 76.719666%)" stop-opacity="1"/>
<stop offset="0.34375" stop-color="rgb(32.559204%, 46.151733%, 76.559448%)" stop-opacity="1"/>
<stop offset="0.347656" stop-color="rgb(32.723999%, 45.851135%, 76.368713%)" stop-opacity="1"/>
<stop offset="0.351562" stop-color="rgb(32.887268%, 45.547485%, 76.177979%)" stop-opacity="1"/>
<stop offset="0.355469" stop-color="rgb(33.125305%, 45.315552%, 76.029968%)" stop-opacity="1"/>
<stop offset="0.359375" stop-color="rgb(33.363342%, 45.079041%, 75.878906%)" stop-opacity="1"/>
<stop offset="0.363281" stop-color="rgb(33.624268%, 44.842529%, 75.72937%)" stop-opacity="1"/>
<stop offset="0.367187" stop-color="rgb(33.882141%, 44.606018%, 75.578308%)" stop-opacity="1"/>
<stop offset="0.371094" stop-color="rgb(34.150696%, 44.306946%, 75.390625%)" stop-opacity="1"/>
<stop offset="0.375" stop-color="rgb(34.417725%, 44.006348%, 75.201416%)" stop-opacity="1"/>
<stop offset="0.378906" stop-color="rgb(34.686279%, 43.704224%, 75.012207%)" stop-opacity="1"/>
<stop offset="0.382812" stop-color="rgb(34.953308%, 43.400574%, 74.822998%)" stop-opacity="1"/>
<stop offset="0.386719" stop-color="rgb(35.220337%, 43.096924%, 74.633789%)" stop-opacity="1"/>
<stop offset="0.390625" stop-color="rgb(35.484314%, 42.790222%, 74.44458%)" stop-opacity="1"/>
<stop offset="0.394531" stop-color="rgb(35.751343%, 42.485046%, 74.255371%)" stop-opacity="1"/>
<stop offset="0.398437" stop-color="rgb(36.01532%, 42.176819%, 74.064636%)" stop-opacity="1"/>
<stop offset="0.402344" stop-color="rgb(36.323547%, 41.906738%, 73.898315%)" stop-opacity="1"/>
<stop offset="0.40625" stop-color="rgb(36.630249%, 41.635132%, 73.731995%)" stop-opacity="1"/>
<stop offset="0.410156" stop-color="rgb(36.987305%, 41.407776%, 73.591614%)" stop-opacity="1"/>
<stop offset="0.414062" stop-color="rgb(37.341309%, 41.178894%, 73.451233%)" stop-opacity="1"/>
<stop offset="0.417969" stop-color="rgb(37.710571%, 40.878296%, 73.150635%)" stop-opacity="1"/>
<stop offset="0.421875" stop-color="rgb(38.076782%, 40.577698%, 72.850037%)" stop-opacity="1"/>
<stop offset="0.425781" stop-color="rgb(38.450623%, 40.242004%, 72.47467%)" stop-opacity="1"/>
<stop offset="0.429687" stop-color="rgb(38.822937%, 39.904785%, 72.099304%)" stop-opacity="1"/>
<stop offset="0.433594" stop-color="rgb(39.204407%, 39.511108%, 71.603394%)" stop-opacity="1"/>
<stop offset="0.4375" stop-color="rgb(39.584351%, 39.117432%, 71.105957%)" stop-opacity="1"/>
<stop offset="0.441406" stop-color="rgb(39.955139%, 38.778687%, 70.69397%)" stop-opacity="1"/>
<stop offset="0.445312" stop-color="rgb(40.322876%, 38.439941%, 70.280457%)" stop-opacity="1"/>
<stop offset="0.449219" stop-color="rgb(40.686035%, 38.121033%, 69.909668%)" stop-opacity="1"/>
<stop offset="0.453125" stop-color="rgb(41.049194%, 37.800598%, 69.538879%)" stop-opacity="1"/>
<stop offset="0.457031" stop-color="rgb(41.409302%, 37.475586%, 69.223022%)" stop-opacity="1"/>
<stop offset="0.460937" stop-color="rgb(41.769409%, 37.149048%, 68.907166%)" stop-opacity="1"/>
<stop offset="0.464844" stop-color="rgb(42.181396%, 36.869812%, 68.583679%)" stop-opacity="1"/>
<stop offset="0.46875" stop-color="rgb(42.591858%, 36.58905%, 68.258667%)" stop-opacity="1"/>
<stop offset="0.472656" stop-color="rgb(43.043518%, 36.34491%, 67.927551%)" stop-opacity="1"/>
<stop offset="0.476562" stop-color="rgb(43.495178%, 36.097717%, 67.596436%)" stop-opacity="1"/>
<stop offset="0.480469" stop-color="rgb(43.954468%, 35.766602%, 67.221069%)" stop-opacity="1"/>
<stop offset="0.484375" stop-color="rgb(44.412231%, 35.435486%, 66.844177%)" stop-opacity="1"/>
<stop offset="0.488281" stop-color="rgb(44.869995%, 35.098267%, 66.467285%)" stop-opacity="1"/>
<stop offset="0.492187" stop-color="rgb(45.326233%, 34.761047%, 66.091919%)" stop-opacity="1"/>
<stop offset="0.496094" stop-color="rgb(45.780945%, 34.420776%, 65.718079%)" stop-opacity="1"/>
<stop offset="0.5" stop-color="rgb(46.234131%, 34.078979%, 65.342712%)" stop-opacity="1"/>
<stop offset="0.503906" stop-color="rgb(46.638489%, 33.773804%, 64.944458%)" stop-opacity="1"/>
<stop offset="0.507812" stop-color="rgb(47.039795%, 33.467102%, 64.547729%)" stop-opacity="1"/>
<stop offset="0.511719" stop-color="rgb(47.442627%, 33.158875%, 64.138794%)" stop-opacity="1"/>
<stop offset="0.515625" stop-color="rgb(47.843933%, 32.847595%, 63.729858%)" stop-opacity="1"/>
<stop offset="0.519531" stop-color="rgb(48.292542%, 32.502747%, 63.296509%)" stop-opacity="1"/>
<stop offset="0.523437" stop-color="rgb(48.738098%, 32.154846%, 62.866211%)" stop-opacity="1"/>
<stop offset="0.527344" stop-color="rgb(49.243164%, 31.858826%, 62.463379%)" stop-opacity="1"/>
<stop offset="0.53125" stop-color="rgb(49.74823%, 31.561279%, 62.060547%)" stop-opacity="1"/>
<stop offset="0.535156" stop-color="rgb(50.283813%, 31.292725%, 61.679077%)" stop-opacity="1"/>
<stop offset="0.539062" stop-color="rgb(50.817871%, 31.019592%, 61.296082%)" stop-opacity="1"/>
<stop offset="0.542969" stop-color="rgb(51.348877%, 30.743408%, 60.972595%)" stop-opacity="1"/>
<stop offset="0.546875" stop-color="rgb(51.878357%, 30.464172%, 60.647583%)" stop-opacity="1"/>
<stop offset="0.550781" stop-color="rgb(52.380371%, 30.168152%, 60.289001%)" stop-opacity="1"/>
<stop offset="0.554687" stop-color="rgb(52.879333%, 29.867554%, 59.928894%)" stop-opacity="1"/>
<stop offset="0.558594" stop-color="rgb(53.346252%, 29.550171%, 59.536743%)" stop-opacity="1"/>
<stop offset="0.5625" stop-color="rgb(53.813171%, 29.231262%, 59.143066%)" stop-opacity="1"/>
<stop offset="0.566406" stop-color="rgb(54.368591%, 28.913879%, 58.641052%)" stop-opacity="1"/>
<stop offset="0.570312" stop-color="rgb(54.922485%, 28.596497%, 58.139038%)" stop-opacity="1"/>
<stop offset="0.574219" stop-color="rgb(55.470276%, 28.288269%, 57.688904%)" stop-opacity="1"/>
<stop offset="0.578125" stop-color="rgb(56.013489%, 27.975464%, 57.23877%)" stop-opacity="1"/>
<stop offset="0.582031" stop-color="rgb(56.52771%, 27.684021%, 56.919861%)" stop-opacity="1"/>
<stop offset="0.585937" stop-color="rgb(57.041931%, 27.389526%, 56.600952%)" stop-opacity="1"/>
<stop offset="0.589844" stop-color="rgb(57.559204%, 27.029419%, 56.210327%)" stop-opacity="1"/>
<stop offset="0.59375" stop-color="rgb(58.074951%, 26.667786%, 55.818176%)" stop-opacity="1"/>
<stop offset="0.597656" stop-color="rgb(58.580017%, 26.322937%, 55.401611%)" stop-opacity="1"/>
<stop offset="0.601562" stop-color="rgb(59.082031%, 25.973511%, 54.985046%)" stop-opacity="1"/>
<stop offset="0.605469" stop-color="rgb(59.518433%, 25.839233%, 54.566956%)" stop-opacity="1"/>
<stop offset="0.609375" stop-color="rgb(59.951782%, 25.704956%, 54.147339%)" stop-opacity="1"/>
<stop offset="0.613281" stop-color="rgb(60.48584%, 25.418091%, 53.7323%)" stop-opacity="1"/>
<stop offset="0.617187" stop-color="rgb(61.016846%, 25.1297%, 53.317261%)" stop-opacity="1"/>
<stop offset="0.621094" stop-color="rgb(61.619568%, 24.726868%, 52.903748%)" stop-opacity="1"/>
<stop offset="0.625" stop-color="rgb(62.220764%, 24.320984%, 52.49176%)" stop-opacity="1"/>
<stop offset="0.628906" stop-color="rgb(62.718201%, 24.110413%, 52.160645%)" stop-opacity="1"/>
<stop offset="0.632812" stop-color="rgb(63.214111%, 23.898315%, 51.829529%)" stop-opacity="1"/>
<stop offset="0.636719" stop-color="rgb(63.720703%, 23.634338%, 51.45874%)" stop-opacity="1"/>
<stop offset="0.640625" stop-color="rgb(64.225769%, 23.368835%, 51.087952%)" stop-opacity="1"/>
<stop offset="0.644531" stop-color="rgb(64.74762%, 23.023987%, 50.656128%)" stop-opacity="1"/>
<stop offset="0.648437" stop-color="rgb(65.263367%, 22.677612%, 50.22583%)" stop-opacity="1"/>
<stop offset="0.652344" stop-color="rgb(65.759277%, 22.366333%, 49.804688%)" stop-opacity="1"/>
<stop offset="0.65625" stop-color="rgb(66.253662%, 22.055054%, 49.385071%)" stop-opacity="1"/>
<stop offset="0.660156" stop-color="rgb(66.741943%, 21.772766%, 48.976135%)" stop-opacity="1"/>
<stop offset="0.664062" stop-color="rgb(67.228699%, 21.490479%, 48.568726%)" stop-opacity="1"/>
<stop offset="0.667969" stop-color="rgb(67.713928%, 21.279907%, 48.188782%)" stop-opacity="1"/>
<stop offset="0.671875" stop-color="rgb(68.199158%, 21.06781%, 47.808838%)" stop-opacity="1"/>
<stop offset="0.675781" stop-color="rgb(68.745422%, 20.854187%, 47.387695%)" stop-opacity="1"/>
<stop offset="0.679687" stop-color="rgb(69.291687%, 20.640564%, 46.968079%)" stop-opacity="1"/>
<stop offset="0.683594" stop-color="rgb(69.862366%, 20.423889%, 46.539307%)" stop-opacity="1"/>
<stop offset="0.6875" stop-color="rgb(70.429993%, 20.207214%, 46.109009%)" stop-opacity="1"/>
<stop offset="0.691406" stop-color="rgb(70.907593%, 19.985962%, 45.7901%)" stop-opacity="1"/>
<stop offset="0.695312" stop-color="rgb(71.385193%, 19.763184%, 45.471191%)" stop-opacity="1"/>
<stop offset="0.699219" stop-color="rgb(71.910095%, 19.491577%, 45.079041%)" stop-opacity="1"/>
<stop offset="0.703125" stop-color="rgb(72.433472%, 19.221497%, 44.68689%)" stop-opacity="1"/>
<stop offset="0.707031" stop-color="rgb(73.002625%, 18.902588%, 44.221497%)" stop-opacity="1"/>
<stop offset="0.710937" stop-color="rgb(73.570251%, 18.580627%, 43.757629%)" stop-opacity="1"/>
<stop offset="0.714844" stop-color="rgb(74.052429%, 18.362427%, 43.328857%)" stop-opacity="1"/>
<stop offset="0.71875" stop-color="rgb(74.533081%, 18.144226%, 42.901611%)" stop-opacity="1"/>
<stop offset="0.722656" stop-color="rgb(74.97406%, 17.94281%, 42.460632%)" stop-opacity="1"/>
<stop offset="0.726562" stop-color="rgb(75.415039%, 17.738342%, 42.021179%)" stop-opacity="1"/>
<stop offset="0.730469" stop-color="rgb(75.791931%, 17.550659%, 41.551208%)" stop-opacity="1"/>
<stop offset="0.734375" stop-color="rgb(76.168823%, 17.36145%, 41.081238%)" stop-opacity="1"/>
<stop offset="0.738281" stop-color="rgb(76.676941%, 17.164612%, 40.730286%)" stop-opacity="1"/>
<stop offset="0.742187" stop-color="rgb(77.183533%, 16.967773%, 40.377808%)" stop-opacity="1"/>
<stop offset="0.746094" stop-color="rgb(77.749634%, 16.749573%, 40.049744%)" stop-opacity="1"/>
<stop offset="0.75" stop-color="rgb(78.314209%, 16.529846%, 39.723206%)" stop-opacity="1"/>
<stop offset="0.753906" stop-color="rgb(78.956604%, 16.221619%, 39.324951%)" stop-opacity="1"/>
<stop offset="0.757812" stop-color="rgb(79.595947%, 15.910339%, 38.928223%)" stop-opacity="1"/>
<stop offset="0.761719" stop-color="rgb(80.079651%, 15.719604%, 38.572693%)" stop-opacity="1"/>
<stop offset="0.765625" stop-color="rgb(80.561829%, 15.525818%, 38.215637%)" stop-opacity="1"/>
<stop offset="0.769531" stop-color="rgb(80.935669%, 15.420532%, 37.889099%)" stop-opacity="1"/>
<stop offset="0.773438" stop-color="rgb(81.307983%, 15.315247%, 37.561035%)" stop-opacity="1"/>
<stop offset="0.777344" stop-color="rgb(81.68335%, 15.238953%, 37.071228%)" stop-opacity="1"/>
<stop offset="0.78125" stop-color="rgb(82.05719%, 15.164185%, 36.579895%)" stop-opacity="1"/>
<stop offset="0.785156" stop-color="rgb(82.542419%, 14.987183%, 36.131287%)" stop-opacity="1"/>
<stop offset="0.789062" stop-color="rgb(83.026123%, 14.811707%, 35.684204%)" stop-opacity="1"/>
<stop offset="0.792969" stop-color="rgb(83.662415%, 14.497375%, 35.298157%)" stop-opacity="1"/>
<stop offset="0.796875" stop-color="rgb(84.29718%, 14.179993%, 34.910583%)" stop-opacity="1"/>
<stop offset="0.800781" stop-color="rgb(84.780884%, 13.975525%, 34.553528%)" stop-opacity="1"/>
<stop offset="0.804688" stop-color="rgb(85.264587%, 13.768005%, 34.197998%)" stop-opacity="1"/>
<stop offset="0.808594" stop-color="rgb(85.697937%, 13.639832%, 33.818054%)" stop-opacity="1"/>
<stop offset="0.8125" stop-color="rgb(86.131287%, 13.511658%, 33.436584%)" stop-opacity="1"/>
<stop offset="0.816406" stop-color="rgb(86.506653%, 13.546753%, 32.969666%)" stop-opacity="1"/>
<stop offset="0.820312" stop-color="rgb(86.882019%, 13.583374%, 32.499695%)" stop-opacity="1"/>
<stop offset="0.824219" stop-color="rgb(87.368774%, 13.380432%, 32.13501%)" stop-opacity="1"/>
<stop offset="0.828125" stop-color="rgb(87.85553%, 13.17749%, 31.770325%)" stop-opacity="1"/>
<stop offset="0.832031" stop-color="rgb(88.388062%, 12.890625%, 31.452942%)" stop-opacity="1"/>
<stop offset="0.835937" stop-color="rgb(88.917542%, 12.599182%, 31.135559%)" stop-opacity="1"/>
<stop offset="0.839844" stop-color="rgb(89.382935%, 12.602234%, 30.769348%)" stop-opacity="1"/>
<stop offset="0.84375" stop-color="rgb(89.848328%, 12.605286%, 30.401611%)" stop-opacity="1"/>
<stop offset="0.847656" stop-color="rgb(90.214539%, 12.565613%, 30.036926%)" stop-opacity="1"/>
<stop offset="0.851562" stop-color="rgb(90.58075%, 12.527466%, 29.672241%)" stop-opacity="1"/>
<stop offset="0.855469" stop-color="rgb(90.852356%, 12.451172%, 29.310608%)" stop-opacity="1"/>
<stop offset="0.859375" stop-color="rgb(91.122437%, 12.373352%, 28.9505%)" stop-opacity="1"/>
<stop offset="0.863281" stop-color="rgb(91.564941%, 12.272644%, 28.575134%)" stop-opacity="1"/>
<stop offset="0.867188" stop-color="rgb(92.00592%, 12.171936%, 28.201294%)" stop-opacity="1"/>
<stop offset="0.871094" stop-color="rgb(92.301941%, 12.104797%, 27.955627%)" stop-opacity="1"/>
<stop offset="0.875" stop-color="rgb(92.597961%, 12.037659%, 27.711487%)" stop-opacity="1"/>
<stop offset="1" stop-color="rgb(92.597961%, 12.037659%, 27.711487%)" stop-opacity="1"/>
</linearGradient>
</defs>
<g clip-path="url(#clip-0)">
<g clip-path="url(#clip-1)">
<path fill-rule="nonzero" fill="url(#linear-pattern-0)" d="M 1762.550781 -1762.550781 L -1609.5 1609.5 L 1762.550781 4981.550781 L 5134.601562 1609.5 Z M 1762.550781 -1762.550781 "/>
</g>
</g>
</svg>
