<svg xmlns="http://www.w3.org/2000/svg" viewBox="0 0 800 500">
  <defs>
    <!-- Main gradient matching your brand -->
    <linearGradient id="vibeGradient" x1="0" y1="0" x2="1" y2="1">
      <stop offset="0%" stop-color="#00d4ff"/>
      <stop offset="100%" stop-color="#ff4ecb"/>
    </linearGradient>
    
    <!-- Holographic screen glow -->
    <radialGradient id="screenGlow" cx="0.5" cy="0.5" r="0.8">
      <stop offset="0%" stop-color="#00d4ff" stop-opacity="0.4"/>
      <stop offset="50%" stop-color="#ff4ecb" stop-opacity="0.2"/>
      <stop offset="100%" stop-color="#000" stop-opacity="0"/>
    </radialGradient>
    
    <!-- Metal gradient for surfaces -->
    <linearGradient id="metal" x1="0" y1="0" x2="0" y2="1">
      <stop offset="0%" stop-color="#4a5568"/>
      <stop offset="30%" stop-color="#2d3748"/>
      <stop offset="70%" stop-color="#1a202c"/>
      <stop offset="100%" stop-color="#2d3748"/>
    </linearGradient>
    
    <!-- Glass reflection -->
    <linearGradient id="glass" x1="0" y1="0" x2="0" y2="1">
      <stop offset="0%" stop-color="#ffffff" stop-opacity="0.3"/>
      <stop offset="30%" stop-color="#ffffff" stop-opacity="0.1"/>
      <stop offset="70%" stop-color="#000000" stop-opacity="0.1"/>
      <stop offset="100%" stop-color="#ffffff" stop-opacity="0.2"/>
    </linearGradient>
    
    <!-- Neon underglow -->
    <linearGradient id="underglow" x1="0" y1="0" x2="1" y2="0">
      <stop offset="0%" stop-color="#00d4ff" stop-opacity="0.8"/>
      <stop offset="50%" stop-color="#ff4ecb" stop-opacity="0.6"/>
      <stop offset="100%" stop-color="#00d4ff" stop-opacity="0.8"/>
    </linearGradient>
    
    <!-- Hologram filter -->
    <filter id="hologram">
      <feGaussianBlur stdDeviation="0.5"/>
      <feColorMatrix values="0 0 0 0 0 0 1 1 0 0.2 1 0 1 0 0.5 0 0 0 1 0"/>
    </filter>
    
    <!-- Screen scanlines -->
    <pattern id="scanlines" x="0" y="0" width="1" height="4" patternUnits="userSpaceOnUse">
      <rect width="1" height="1" fill="rgba(0,212,255,0.05)"/>
      <rect y="2" width="1" height="1" fill="rgba(255,78,203,0.05)"/>
    </pattern>
    
    <!-- Code text styles -->
    <style><![CDATA[
      .code-text { font-family: 'JetBrains Mono', 'Fira Code', monospace; font-size: 11px; }
      .code-comment { fill: #64748b; font-style: italic; }
      .code-keyword { fill: #ff6b9d; font-weight: bold; }
      .code-string { fill: #fbbf24; }
      .code-function { fill: #06d6a0; }
      .code-variable { fill: #00d4ff; }
      .terminal-text { font-family: 'SF Mono', monospace; font-size: 10px; fill: #00ff88; }
    ]]></style>
  </defs>
  
  <!-- Futuristic desk surface with underglow -->
  <ellipse cx="400" cy="460" rx="350" ry="35" fill="url(#metal)"/>
  <ellipse cx="400" cy="455" rx="340" ry="30" fill="url(#underglow)" opacity="0.6"/>
  <ellipse cx="400" cy="450" rx="320" ry="25" fill="#1a1a1a"/>
  
  <!-- Holographic monitor floating above base -->
  <g transform="translate(0, -20)">
    <!-- Monitor base (floating) -->
    <ellipse cx="400" cy="420" rx="40" ry="8" fill="url(#metal)"/>
    <rect x="395" y="400" width="10" height="20" fill="url(#metal)" rx="2"/>
    
    <!-- Main holographic display -->
    <rect x="180" y="150" width="440" height="280" rx="20" fill="#000814" stroke="url(#vibeGradient)" stroke-width="2" opacity="0.9"/>
    
    <!-- Screen bezel with reflection -->
    <rect x="190" y="160" width="420" height="260" rx="15" fill="#000"/>
    <rect x="190" y="160" width="420" height="260" rx="15" fill="url(#glass)" opacity="0.4"/>
    
    <!-- Scanlines overlay -->
    <rect x="190" y="160" width="420" height="260" rx="15" fill="url(#scanlines)"/>
    
    <!-- Terminal window -->
    <rect x="210" y="180" width="190" height="220" rx="8" fill="#0d1117" stroke="#21262d" stroke-width="1"/>
    
    <!-- Terminal header -->
    <rect x="210" y="180" width="190" height="25" rx="8" fill="#161b22"/>
    <circle cx="225" cy="192.5" r="3" fill="#ff5f57"/>
    <circle cx="240" cy="192.5" r="3" fill="#febc2e"/>
    <circle cx="255" cy="192.5" r="3" fill="#28ca42"/>
    <text x="270" y="197" class="terminal-text" font-size="8px" fill="#7d8590">zsh</text>
    
    <!-- Terminal content -->
    <g class="terminal-text">
      <text x="220" y="220" fill="#00ff88">➜ vibecode-studio git:(main)</text>
      <text x="220" y="235" fill="#7d8590">$ npm run dev</text>
      <text x="220" y="250" fill="#00d4ff">⚡ Vite dev server running</text>
      <text x="220" y="265" fill="#00d4ff">➜ Local: http://localhost:3000</text>
      <text x="220" y="280" fill="#fbbf24">⚠ Hot reload enabled</text>
      <text x="220" y="295" fill="#00ff88">✓ TypeScript ready</text>
      <text x="220" y="310" fill="#00ff88">✓ Tailwind CSS loaded</text>
      <text x="220" y="325" fill="#ff4ecb">◌ Neural AI assistant online</text>
      <text x="220" y="340" fill="#00d4ff">◌ Quantum compiler initialized</text>
      <text x="220" y="355" fill="#7d8590">$ </text>
      <rect x="240" y="347" width="2" height="12" fill="#00ff88">
        <animate attributeName="opacity" values="0;1;0" dur="1s" repeatCount="indefinite"/>
      </rect>
    </g>
    
    <!-- Code editor window -->
    <rect x="420" y="180" width="170" height="220" rx="8" fill="#0d1117" stroke="#21262d" stroke-width="1"/>
    
    <!-- Code editor header -->
    <rect x="420" y="180" width="170" height="25" rx="8" fill="#161b22"/>
    <circle cx="435" cy="192.5" r="3" fill="#ff5f57"/>
    <circle cx="450" cy="192.5" r="3" fill="#febc2e"/>
    <circle cx="465" cy="192.5" r="3" fill="#28ca42"/>
    <text x="480" y="197" class="terminal-text" font-size="7px" fill="#7d8590">VibeOS.tsx</text>
    
    <!-- Code content with syntax highlighting -->
    <g class="code-text">
      <text x="430" y="220" class="code-keyword">import</text>
      <text x="465" y="220" fill="#e2e8f0"> { </text>
      <text x="475" y="220" class="code-function">useState</text>
      <text x="520" y="220" fill="#e2e8f0"> } </text>
      <text x="530" y="220" class="code-keyword">from</text>
      <text x="430" y="232" class="code-string">'react'</text>
      
      <text x="430" y="248" class="code-keyword">interface</text>
      <text x="480" y="248" class="code-variable"> VibeProps</text>
      <text x="540" y="248" fill="#e2e8f0"> {</text>
      <text x="440" y="260" class="code-variable"> quantum</text>
      <text x="485" y="260" fill="#e2e8f0">: </text>
      <text x="495" y="260" class="code-keyword">boolean</text>
      <text x="440" y="272" class="code-variable"> ai</text>
      <text x="455" y="272" fill="#e2e8f0">: </text>
      <text x="465" y="272" class="code-function">NeuralNet</text>
      <text x="430" y="284" fill="#e2e8f0">}</text>
      
      <text x="430" y="300" class="code-keyword">const</text>
      <text x="465" y="300" class="code-function"> VibeOS</text>
      <text x="505" y="300" fill="#e2e8f0"> = ()</text>
      <text x="535" y="300" class="code-keyword"> =></text>
      <text x="555" y="300" fill="#e2e8f0"> {</text>
      
      <text x="440" y="316" class="code-keyword">const</text>
      <text x="475" y="316" fill="#e2e8f0"> [</text>
      <text x="485" y="316" class="code-variable">vibe</text>
      <text x="510" y="316" fill="#e2e8f0">, </text>
      <text x="520" y="316" class="code-variable">setVibe</text>
      <text x="560" y="316" fill="#e2e8f0">] = </text>
      <text x="440" y="328" class="code-function"> useState</text>
      <text x="485" y="328" fill="#e2e8f0">(</text>
      <text x="490" y="328" class="code-string">'maximum'</text>
      <text x="540" y="328" fill="#e2e8f0">)</text>
      
      <text x="440" y="344" class="code-keyword">return</text>
      <text x="480" y="344" fill="#e2e8f0"> &lt;</text>
      <text x="490" y="344" class="code-keyword">QuantumDiv</text>
      <text x="550" y="344" fill="#e2e8f0"> /&gt;</text>
      
      <text x="430" y="360" fill="#e2e8f0">}</text>
      
      <text x="430" y="376" class="code-keyword">export</text>
      <text x="470" y="376" class="code-keyword"> default</text>
      <text x="515" y="376" class="code-function"> VibeOS</text>
    </g>
  </g>
  
  <!-- Futuristic wireless keyboard -->
  <g transform="translate(200, 380)">
    <rect x="0" y="0" width="180" height="60" rx="8" fill="url(#metal)"/>
    <rect x="5" y="5" width="170" height="50" rx="6" fill="#1a1a1a"/>
    
    <!-- Mechanical keys with individual underglow -->
    <g>
      <!-- Top row -->
      <rect x="15" y="12" width="12" height="12" rx="2" fill="#2a2a2a" stroke="url(#vibeGradient)" stroke-width="0.5"/>
      <rect x="30" y="12" width="12" height="12" rx="2" fill="#2a2a2a" stroke="#ff4ecb" stroke-width="0.5"/>
      <rect x="45" y="12" width="12" height="12" rx="2" fill="#2a2a2a" stroke="#00d4ff" stroke-width="0.5"/>
      <rect x="60" y="12" width="12" height="12" rx="2" fill="#2a2a2a" stroke="#ff4ecb" stroke-width="0.5"/>
      <rect x="75" y="12" width="12" height="12" rx="2" fill="#2a2a2a" stroke="#00d4ff" stroke-width="0.5"/>
      <rect x="90" y="12" width="12" height="12" rx="2" fill="#2a2a2a" stroke="#ff4ecb" stroke-width="0.5"/>
      
      <!-- Middle row -->
      <rect x="15" y="28" width="12" height="12" rx="2" fill="#2a2a2a" stroke="#00d4ff" stroke-width="0.5"/>
      <rect x="30" y="28" width="12" height="12" rx="2" fill="#2a2a2a" stroke="#ff4ecb" stroke-width="0.5"/>
      <rect x="45" y="28" width="12" height="12" rx="2" fill="#2a2a2a" stroke="#00d4ff" stroke-width="0.5"/>
      <rect x="60" y="28" width="12" height="12" rx="2" fill="#2a2a2a" stroke="#ff4ecb" stroke-width="0.5"/>
      <rect x="75" y="28" width="12" height="12" rx="2" fill="#2a2a2a" stroke="#00d4ff" stroke-width="0.5"/>
      <rect x="90" y="28" width="45" height="12" rx="2" fill="#2a2a2a" stroke="url(#vibeGradient)" stroke-width="0.5"/>
      
      <!-- Bottom row -->
      <rect x="15" y="44" width="20" height="8" rx="2" fill="#2a2a2a" stroke="#00d4ff" stroke-width="0.5"/>
      <rect x="40" y="44" width="60" height="8" rx="2" fill="#2a2a2a" stroke="url(#vibeGradient)" stroke-width="0.5"/>
      <rect x="105" y="44" width="20" height="8" rx="2" fill="#2a2a2a" stroke="#ff4ecb" stroke-width="0.5"/>
    </g>
    
    <!-- Keyboard underglow -->
    <ellipse cx="90" cy="69" rx="95" ry="4" fill="url(#underglow)" opacity="0.8"/>
  </g>
  
  <!-- Smart coffee mug with temperature display -->
  <g transform="translate(590, 400)">
    <rect x="0" y="0" width="35" height="45" rx="4" fill="url(#metal)"/>
    <rect x="3" y="3" width="29" height="39" rx="2" fill="#1a1a1a"/>
    
    <!-- Digital temperature display -->
    <rect x="8" y="8" width="19" height="8" rx="1" fill="#000"/>
    <text x="17.5" y="14" text-anchor="middle" class="terminal-text" font-size="6px" fill="#00ff88">75°C</text>
    
    <!-- Coffee -->
    <ellipse cx="17.5" cy="40" rx="12" ry="3" fill="#2F1B14"/>
    
    <!-- Handle -->
    <path d="M35 20 Q45 20 45 30 Q45 35 35 35" stroke="url(#metal)" stroke-width="3" fill="none"/>
    
    <!-- Smart steam with IoT indicator -->
    <g stroke="#00d4ff" stroke-width="1.5" fill="none" opacity="0.7">
      <path d="M12 0 Q15 -10 12 -20">
        <animate attributeName="opacity" values="0.7;0.2;0.7" dur="1.8s" repeatCount="indefinite"/>
      </path>
      <path d="M17.5 0 Q20.5 -10 17.5 -20">
        <animate attributeName="opacity" values="0.2;0.7;0.2" dur="1.8s" repeatCount="indefinite"/>
      </path>
      <path d="M23 0 Q26 -10 23 -20">
        <animate attributeName="opacity" values="0.7;0.2;0.7" dur="1.8s" repeatCount="indefinite"/>
      </path>
    </g>
    
    <!-- IoT connectivity indicator -->
    <circle cx="30" cy="2" r="1.5" fill="#00ff88">
      <animate attributeName="fill" values="#00ff88;#00d4ff;#00ff88" dur="3s" repeatCount="indefinite"/>
    </circle>
  </g>
  

  <!-- Floating brand elements -->
  <g opacity="0.9"> 
  <!-- Quantum particles -->
  <g fill="url(#vibeGradient)">
    <circle cx="150" cy="120" r="2">
      <animate attributeName="cy" values="120;100;120" dur="4s" repeatCount="indefinite"/>
      <animate attributeName="opacity" values="1;0.3;1" dur="4s" repeatCount="indefinite"/>
      <animate attributeName="r" values="2;3;2" dur="4s" repeatCount="indefinite"/>
    </circle>
    <circle cx="650" cy="300" r="1.5">
      <animate attributeName="cy" values="300;280;300" dur="3.5s" repeatCount="indefinite"/>
      <animate attributeName="opacity" values="0.8;0.2;0.8" dur="3.5s" repeatCount="indefinite"/>
    </circle>
    <circle cx="100" cy="350" r="1">
      <animate attributeName="cy" values="350;330;350" dur="2.8s" repeatCount="indefinite"/>
      <animate attributeName="opacity" values="0.9;0.1;0.9" dur="2.8s" repeatCount="indefinite"/>
    </circle>
    <circle cx="700" cy="100" r="3">
      <animate attributeName="cy" values="350;330;350" dur="2.8s" repeatCount="indefinite"/>
      <animate attributeName="opacity" values="0.9;0.1;0.9" dur="2.8s" repeatCount="indefinite"/>
    </circle>
    <circle cx="100" cy="350" r="1">
      <animate attributeName="cy" values="350;330;350" dur="2.8s" repeatCount="indefinite"/>
      <animate attributeName="opacity" values="0.9;0.1;0.9" dur="2.8s" repeatCount="indefinite"/>
    </circle>
  </g>
  </g>
</svg>